<svg xmlns="http://www.w3.org/2000/svg" width="22.553" height="21.996" viewBox="0 0 22.553 21.996"><defs><style>.a{fill-rule:evenodd;}</style></defs><path class="a" d="M11.276,0A11.277,11.277,0,0,0,7.71,21.975c.564.1.775-.24.775-.536,0-.268-.014-1.156-.014-2.1-2.833.522-3.566-.691-3.792-1.325a4.1,4.1,0,0,0-1.156-1.593c-.395-.211-.958-.733-.014-.747A2.257,2.257,0,0,1,5.244,16.83a2.41,2.41,0,0,0,3.284.93,2.372,2.372,0,0,1,.719-1.508C6.738,15.97,4.116,15,4.116,10.684A4.388,4.388,0,0,1,5.272,7.654a4.052,4.052,0,0,1,.113-2.988s.944-.3,3.1,1.156a10.631,10.631,0,0,1,5.638,0c2.157-1.466,3.1-1.156,3.1-1.156a4.052,4.052,0,0,1,.113,2.988,4.363,4.363,0,0,1,1.156,3.031c0,4.327-2.636,5.286-5.145,5.568a2.67,2.67,0,0,1,.761,2.086c0,1.508-.014,2.72-.014,3.1,0,.3.211.648.775.536A11.282,11.282,0,0,0,11.276,0Z"/></svg>