<svg xmlns="http://www.w3.org/2000/svg" width="27.127" height="21.996" viewBox="0 0 27.127 21.996"><path d="M27.127,10.155a12,12,0,0,1-2.772,2.89v.708a16.283,16.283,0,0,1-1.769,7.371A15.43,15.43,0,0,1,17.1,27.109a15.189,15.189,0,0,1-8.551,2.447A15.422,15.422,0,0,1,0,27.08a10.829,10.829,0,0,0,1.356.059,10.872,10.872,0,0,0,6.9-2.359,5.575,5.575,0,0,1-3.243-1.12,5.366,5.366,0,0,1-1.946-2.772,2.985,2.985,0,0,0,1,.118,6.056,6.056,0,0,0,1.474-.177A5.564,5.564,0,0,1,1.12,15.344v-.059a6.082,6.082,0,0,0,2.477.708A5.374,5.374,0,0,1,1.12,11.334a5.57,5.57,0,0,1,.767-2.772,14.938,14.938,0,0,0,11.5,5.779A3.92,3.92,0,0,1,13.21,13.1a5.342,5.342,0,0,1,1.622-3.922A5.412,5.412,0,0,1,18.812,7.56a5.246,5.246,0,0,1,4.01,1.71,12.886,12.886,0,0,0,3.538-1.3,5.324,5.324,0,0,1-2.418,3.067,12.776,12.776,0,0,0,3.184-.885h0Z" transform="translate(0 -7.56)"/></svg>