<svg xmlns="http://www.w3.org/2000/svg" viewBox="0 0 466.08 104.03"><defs><style>.cls-1{isolation:isolate;}</style></defs><title>logo-black_1</title><g id="Calque_2" data-name="Calque 2"><g id="Layer_1" data-name="Layer 1"><g id="Layer_1-2" data-name="Layer 1-2"><g class="cls-1"><path d="M7.26,75.9A23.86,23.86,0,0,1,0,58.39V25.28a4,4,0,0,1,1.22-2.91,4,4,0,0,1,2.91-1.22A3.88,3.88,0,0,1,7,22.37a4,4,0,0,1,1.22,2.91v14.6a24.12,24.12,0,0,1,16.56-6.3,23.92,23.92,0,0,1,17.56,7.26,23.92,23.92,0,0,1,7.26,17.56A23.87,23.87,0,0,1,42.37,75.9a23.85,23.85,0,0,1-17.56,7.3A23.94,23.94,0,0,1,7.26,75.9Zm17.56-1A15.92,15.92,0,0,0,36.5,70.08a16.52,16.52,0,0,0,0-23.42,15.92,15.92,0,0,0-11.69-4.82,15.92,15.92,0,0,0-11.69,4.82,16.52,16.52,0,0,0,0,23.42A15.92,15.92,0,0,0,24.81,74.9Z" transform="translate(0 -0.25)"/><path d="M95,70.21a4,4,0,0,1,2.78,1.48,4.1,4.1,0,0,1,1,3,4,4,0,0,1-1.48,2.78,29.86,29.86,0,0,1-8.3,4.22,31,31,0,0,1-9.69,1.48,24.45,24.45,0,0,1-18-7.3A23.86,23.86,0,0,1,54,58.39,24.78,24.78,0,0,1,78.79,33.58,24.78,24.78,0,0,1,103.6,58.39a4.15,4.15,0,0,1-4.13,4.13H62.75A16.58,16.58,0,0,0,79.22,74.9a23.32,23.32,0,0,0,6.91-1,21,21,0,0,0,5.78-2.83A4,4,0,0,1,95,70.21Zm-32.2-16H94.82a16.34,16.34,0,0,0-4.35-7.56,16.58,16.58,0,0,0-23.38,0A16.32,16.32,0,0,0,62.75,54.22Z" transform="translate(0 -0.25)"/><path d="M120.12,79a4,4,0,0,1-1.22,3A3.88,3.88,0,0,1,116,83.21,4,4,0,0,1,113.08,82a4,4,0,0,1-1.22-3V25.28A4.15,4.15,0,0,1,116,21.15a3.88,3.88,0,0,1,2.91,1.22,4,4,0,0,1,1.22,2.91Z" transform="translate(0 -0.25)"/><path d="M137.28,33.58a4.08,4.08,0,0,0-4.13,4.13V79a4,4,0,0,0,1.22,3,4,4,0,0,0,2.91,1.22A3.88,3.88,0,0,0,140.19,82a4,4,0,0,0,1.22-3V37.71a4,4,0,0,0-1.22-3A4,4,0,0,0,137.28,33.58Z" transform="translate(0 -0.25)"/><path d="M191.12,70.21a4,4,0,0,1,2.78,1.48,4.1,4.1,0,0,1,1,3,4,4,0,0,1-1.48,2.78,29.86,29.86,0,0,1-8.3,4.22,31,31,0,0,1-9.69,1.48,24.45,24.45,0,0,1-18-7.3,23.86,23.86,0,0,1-7.26-17.51,24.83,24.83,0,0,1,42.37-17.56,23.92,23.92,0,0,1,7.26,17.56,4.15,4.15,0,0,1-4.13,4.13H158.92A16.58,16.58,0,0,0,175.39,74.9a23.32,23.32,0,0,0,6.91-1,21,21,0,0,0,5.78-2.83A4,4,0,0,1,191.12,70.21Zm-32.2-16H191a16.34,16.34,0,0,0-4.35-7.56,16.58,16.58,0,0,0-23.38,0A16.32,16.32,0,0,0,158.92,54.22Z" transform="translate(0 -0.25)"/><path d="M202.47,36.53a4.14,4.14,0,0,1,2.09-2.39A4.15,4.15,0,0,1,210.07,36l17,34,17-34a4,4,0,0,1,2.39-2,3.82,3.82,0,0,1,3.13.22,4.14,4.14,0,0,1,2.09,2.39,4.05,4.05,0,0,1-.22,3.13L230.76,81a4,4,0,0,1-1.83,1.83,3.92,3.92,0,0,1-3.17.22,4,4,0,0,1-2.39-2L202.73,39.66A3.94,3.94,0,0,1,202.47,36.53Z" transform="translate(0 -0.25)"/></g><path d="M308.09,59.32a4,4,0,0,1,2.78,1.48,4.1,4.1,0,0,1,1,3,4,4,0,0,1-1.48,2.78,29.86,29.86,0,0,1-8.3,4.22,31,31,0,0,1-9.69,1.48,24.45,24.45,0,0,1-18-7.3,23.86,23.86,0,0,1-7.26-17.51,24.78,24.78,0,0,1,24.81-24.81,23.92,23.92,0,0,1,17.56,7.26,23.92,23.92,0,0,1,7.26,17.56,4.15,4.15,0,0,1-4.13,4.13H275.89A16.58,16.58,0,0,0,292.36,64a23.33,23.33,0,0,0,6.91-1A21,21,0,0,0,305,60.23,4,4,0,0,1,308.09,59.32Zm-32.2-16H308a16.34,16.34,0,0,0-4.35-7.56,16.58,16.58,0,0,0-23.38,0A16.32,16.32,0,0,0,275.89,43.33Z" transform="translate(0 -0.25)"/><g class="cls-1"><path d="M342.88,79.08A4,4,0,0,1,341.66,82a3.88,3.88,0,0,1-2.91,1.22,4.15,4.15,0,0,1-4.13-4.13V54.67C304.1,83.31,337.31,42,342.28,38a19.45,19.45,0,0,1,12.46-4.41,20.23,20.23,0,0,1,14.14,5.5,20.72,20.72,0,0,1,2.29,2.54,25,25,0,0,1,1.8-2,20.43,20.43,0,0,1,14.24-6,19.63,19.63,0,0,1,14.69,6,20.7,20.7,0,0,1,5.87,14.59V79.08a4.15,4.15,0,0,1-4.13,4.13A3.88,3.88,0,0,1,400.72,82a4,4,0,0,1-1.22-2.91V53.92a12.08,12.08,0,0,0-24.16,0V79.08A4,4,0,0,1,374.12,82a4,4,0,0,1-3,1.22A4.15,4.15,0,0,1,367,79.08V53.92a12.08,12.08,0,0,0-24.16,0Z" transform="translate(0 -0.25)"/><path d="M466.08,79.47a24.79,24.79,0,0,1-38.29,20.82,24.3,24.3,0,0,1-9.17-10.73,3.91,3.91,0,0,1-.09-3.13,4.12,4.12,0,0,1,7.61-.22,16.36,16.36,0,0,0,6.13,7.17,16.19,16.19,0,0,0,9,2.65,16.62,16.62,0,0,0,16.56-16.56V76.86a24.82,24.82,0,0,1-41.37-18.47V37.71a4.08,4.08,0,0,1,4.13-4.13,4,4,0,0,1,2.91,1.17,4,4,0,0,1,1.22,3V58.39a16.56,16.56,0,0,0,33.11,0V37.71a4,4,0,0,1,1.22-3,4,4,0,0,1,2.91-1.17,4.08,4.08,0,0,1,4.13,4.13Z" transform="translate(0 -0.25)"/></g></g><path d="M268.41,20.24a6.9,6.9,0,0,1,3.48,8.69,7,7,0,0,1-9.12,4.22c-1.65-.48-2.9-1.87-4.12-3.29a52,52,0,0,0-3.7-4.34,16.74,16.74,0,0,0-2.31-1.66c-1-.65-1-1.26.06-1.94a18.25,18.25,0,0,1,6.11-2.46A14.92,14.92,0,0,1,268.41,20.24Z" transform="translate(0 -0.25)"/><path d="M275.24,15a6.9,6.9,0,0,1,1,9.31,7,7,0,0,1-9.92,1.58c-1.46-.92-2.29-2.6-3.08-4.29a51.42,51.42,0,0,0-2.38-5.18,15.9,15.9,0,0,0-1.78-2.23c-.8-.91-.65-1.49.58-1.85a18.33,18.33,0,0,1,6.56-.7A14.88,14.88,0,0,1,275.24,15Z" transform="translate(0 -0.25)"/><path d="M283.94,13.76a6.9,6.9,0,0,1-2.89,8.9,7,7,0,0,1-9.7-2.6c-1-1.43-1-3.3-1.06-5.17a52.48,52.48,0,0,0-.07-5.69,17,17,0,0,0-.71-2.76c-.36-1.17,0-1.63,1.28-1.46a18.24,18.24,0,0,1,6.27,2A14.86,14.86,0,0,1,283.94,13.76Z" transform="translate(0 -0.25)"/><path d="M291.57,13.15a6.9,6.9,0,0,1-5.66,7.46A7,7,0,0,1,277.6,15c-.43-1.67.11-3.46.7-5.23a49.1,49.1,0,0,0,1.82-5.41,15.83,15.83,0,0,0,.24-2.83c0-1.22.55-1.54,1.7-.95a18.55,18.55,0,0,1,5.25,4A14.93,14.93,0,0,1,291.57,13.15Z" transform="translate(0 -0.25)"/><path d="M144.25,25.45a6.9,6.9,0,0,1-7.13,6.07,7,7,0,0,1-6.9-7.31c-.06-1.72.85-3.36,1.81-5A49.1,49.1,0,0,0,135,14.36a15.83,15.83,0,0,0,.84-2.71c.3-1.18.87-1.39,1.86-.56a18.55,18.55,0,0,1,4.27,5A14.93,14.93,0,0,1,144.25,25.45Z" transform="translate(0 -0.25)"/></g></g></svg>